<?xml version="1.0" standalone="no"?>
<!DOCTYPE svg PUBLIC "-//W3C//DTD SVG 20010904//EN"
 "http://www.w3.org/TR/2001/REC-SVG-20010904/DTD/svg10.dtd">
<svg version="1.0" xmlns="http://www.w3.org/2000/svg"
 width="108.000000pt" height="108.000000pt" viewBox="0 0 108.000000 108.000000"
 preserveAspectRatio="xMidYMid meet">
<metadata>
Created by potrace 1.16, written by Peter Selinger 2001-2019
</metadata>
<g transform="translate(0.000000,108.000000) scale(0.100000,-0.100000)"
fill="#000000" stroke="none">
<path d="M174 1068 c-3 -5 -1 -15 5 -22 7 -8 10 -85 10 -210 -1 -177 -3 -200
-19 -214 -133 -123 -153 -160 -158 -284 -4 -77 -1 -93 24 -148 33 -74 112
-151 180 -174 26 -9 78 -16 116 -16 59 0 68 2 68 18 0 16 -9 19 -70 20 -171 4
-290 122 -290 289 0 61 5 80 33 134 29 57 89 118 128 131 9 3 11 60 11 218 -1
118 2 220 6 225 4 7 49 11 109 10 l103 0 1 -180 c2 -281 -2 -265 81 -314 56
-33 62 -6 8 40 l-43 37 1 207 c1 141 5 212 13 221 14 17 22 16 -164 19 -81 1
-150 -2 -153 -7z"/>
<path d="M623 873 c-7 -2 -13 -11 -13 -18 0 -7 6 -15 13 -18 9 -3 12 -33 10
-108 l-1 -104 -102 -274 c-67 -181 -99 -282 -96 -297 14 -54 14 -54 326 -54
287 0 289 0 304 22 9 12 16 30 16 40 0 9 -43 140 -96 290 -94 268 -96 275 -97
368 0 52 3 106 7 119 6 16 4 26 -5 32 -15 9 -245 11 -266 2z m218 -43 c0 -3 2
-48 3 -100 3 -92 6 -104 99 -362 101 -280 111 -314 97 -323 -18 -11 -551 -8
-562 3 -8 8 -1 41 26 119 175 500 166 469 162 565 -3 68 0 90 10 96 16 9 164
10 165 2z"/>
<path d="M646 468 c-18 -10 -143 -384 -132 -395 4 -4 113 -9 242 -10 194 -2
236 1 240 12 3 8 -7 50 -23 95 -20 59 -33 80 -45 80 -22 0 -23 5 7 -68 14 -34
25 -64 25 -67 0 -3 -92 -5 -205 -5 -113 0 -205 2 -205 5 0 2 25 74 56 160 41
111 61 155 73 156 15 1 139 0 153 -1 3 0 16 -30 28 -66 20 -61 41 -86 58 -70
9 10 -39 147 -59 167 -14 14 -36 17 -108 16 -49 0 -97 -4 -105 -9z"/>
<path d="M259 790 c-1 -5 -3 -14 -4 -20 -1 -5 -3 -52 -4 -103 l-1 -93 -44 -21
c-52 -26 -105 -88 -88 -105 8 -8 21 0 47 30 21 22 54 47 75 56 26 10 40 23 44
42 8 29 6 191 -1 212 -6 14 -22 16 -24 2z"/>
<path d="M87 399 c-12 -7 -14 -22 -10 -77 3 -37 11 -81 18 -99 21 -49 92 -120
139 -138 54 -21 161 -17 161 5 0 11 -15 16 -64 18 -127 6 -215 88 -222 207 -4
63 -5 63 219 64 157 1 200 8 155 25 -25 10 -377 5 -396 -5z"/>
</g>
</svg>
