<?xml version="1.0" standalone="no"?>
<!DOCTYPE svg PUBLIC "-//W3C//DTD SVG 20010904//EN"
 "http://www.w3.org/TR/2001/REC-SVG-20010904/DTD/svg10.dtd">
<svg version="1.0" xmlns="http://www.w3.org/2000/svg"
 width="81.000000pt" height="91.000000pt" viewBox="0 0 81.000000 91.000000"
 preserveAspectRatio="xMidYMid meet">
<metadata>
Created by potrace 1.16, written by Peter Selinger 2001-2019
</metadata>
<g transform="translate(0.000000,91.000000) scale(0.100000,-0.100000)"
fill="#000000" stroke="none">
<path d="M23 903 c-7 -3 -13 -11 -13 -19 0 -13 7 -16 26 -13 16 2 22 -31 23
-130 2 -118 12 -144 63 -166 27 -11 31 -18 32 -54 1 -22 -3 -41 -9 -42 -5 0
-36 -2 -69 -4 -32 -2 -61 -6 -63 -9 -8 -7 -7 -78 0 -108 5 -19 16 -30 35 -34
15 -3 32 -7 39 -9 18 -6 -3 -81 -43 -153 -29 -51 -35 -71 -32 -110 l3 -47 94
-3 c108 -3 124 4 115 54 -8 46 24 179 51 204 11 10 35 20 52 22 29 2 30 4 29
43 -1 29 3 40 14 40 8 0 15 -9 16 -20 3 -51 -4 -49 129 -31 18 2 23 18 23 86
0 85 -5 94 -47 79 -43 -15 -210 -6 -221 12 -5 7 -7 24 -5 38 2 14 4 29 4 34 1
4 9 7 19 7 26 0 62 42 71 82 5 19 8 73 7 121 l-1 87 30 10 c28 10 29 12 12 25
-14 10 -60 13 -195 13 -98 -1 -183 -3 -189 -5z m300 -120 c0 -40 -3 -74 -7
-74 -12 -3 -96 53 -96 62 0 5 -7 9 -16 9 -8 0 -34 10 -57 23 -97 52 -73 67 92
57 l84 -5 0 -72z"/>
</g>
</svg>
