<?xml version="1.0" standalone="no"?>
<!DOCTYPE svg PUBLIC "-//W3C//DTD SVG 20010904//EN"
 "http://www.w3.org/TR/2001/REC-SVG-20010904/DTD/svg10.dtd">
<svg version="1.0" xmlns="http://www.w3.org/2000/svg"
 width="88.000000pt" height="89.000000pt" viewBox="0 0 88.000000 89.000000"
 preserveAspectRatio="xMidYMid meet">
<metadata>
Created by potrace 1.16, written by Peter Selinger 2001-2019
</metadata>
<g transform="translate(0.000000,89.000000) scale(0.100000,-0.100000)"
fill="#000000" stroke="none">
<path d="M674 876 c-39 -17 -72 -59 -80 -102 -5 -26 0 -47 20 -88 25 -52 26
-56 11 -88 -16 -33 -17 -33 -85 -33 -54 0 -74 -4 -97 -21 l-28 -21 -76 59 -76
58 10 38 c13 49 -12 106 -62 139 -85 57 -201 -6 -201 -110 0 -107 105 -169
200 -118 l34 18 74 -55 c67 -51 73 -58 65 -81 -4 -14 -7 -49 -7 -77 l1 -51
-74 -37 c-70 -34 -75 -35 -103 -21 -69 36 -147 9 -181 -63 -24 -50 -20 -95 12
-136 42 -53 100 -68 164 -42 52 22 77 68 73 140 l-3 60 66 35 65 35 23 -23
c45 -45 119 -62 177 -41 45 17 57 -3 32 -51 -36 -69 -10 -150 59 -184 121 -59
244 77 173 192 -29 48 -72 67 -137 59 -65 -8 -72 2 -43 59 34 67 26 139 -23
192 -20 22 -20 23 -2 63 18 40 19 40 73 40 50 0 58 3 93 39 35 34 39 44 39 87
0 61 -25 105 -73 127 -42 20 -71 21 -113 3z m121 -49 c18 -15 28 -36 32 -64 5
-39 2 -46 -30 -78 -39 -39 -70 -44 -117 -20 -37 19 -50 43 -50 90 0 81 103
126 165 72z m-622 -26 c42 -16 67 -51 67 -94 0 -49 -13 -73 -52 -93 -113 -59
-205 109 -96 176 37 23 47 24 81 11z m41 -572 c24 -27 27 -38 23 -71 -12 -93
-113 -125 -176 -57 -23 25 -28 86 -11 119 31 57 116 61 164 9z m582 -8 c59
-36 68 -108 19 -156 -32 -33 -65 -39 -109 -21 -75 31 -82 134 -12 177 39 24
63 24 102 0z"/>
</g>
</svg>
