<?xml version="1.0" standalone="no"?>
<!DOCTYPE svg PUBLIC "-//W3C//DTD SVG 20010904//EN"
 "http://www.w3.org/TR/2001/REC-SVG-20010904/DTD/svg10.dtd">
<svg version="1.0" xmlns="http://www.w3.org/2000/svg"
 width="81.000000pt" height="72.000000pt" viewBox="0 0 81.000000 72.000000"
 preserveAspectRatio="xMidYMid meet">
<metadata>
Created by potrace 1.16, written by Peter Selinger 2001-2019
</metadata>
<g transform="translate(0.000000,72.000000) scale(0.100000,-0.100000)"
fill="#000000" stroke="none">
<path d="M13 708 c-4 -7 -9 -131 -10 -275 -2 -206 1 -265 11 -276 15 -14 176
-23 227 -12 22 5 29 12 29 31 0 22 -4 24 -47 25 -27 0 -70 4 -96 7 l-49 7 2
215 c0 118 2 215 3 217 4 4 618 5 622 2 1 -2 5 -39 8 -82 3 -42 9 -82 12 -87
8 -13 42 -13 50 0 9 15 10 214 1 228 -11 18 -752 17 -763 0z"/>
<path d="M421 483 c-38 -22 -41 -27 -41 -67 0 -42 -21 -76 -48 -76 -25 0 -42
-33 -42 -81 0 -59 13 -89 39 -89 29 0 51 -33 51 -76 0 -33 5 -42 33 -62 39
-26 65 -28 93 -7 24 18 68 19 83 1 21 -25 49 -25 91 2 36 24 40 31 40 68 0 40
22 74 48 74 25 0 42 33 42 81 0 59 -13 89 -39 89 -28 0 -49 31 -53 79 -3 41
-6 46 -47 68 l-43 23 -28 -20 c-33 -23 -73 -26 -89 -6 -20 24 -48 24 -90 -1z
m89 -68 c15 -18 53 -20 82 -4 11 6 31 8 44 5 20 -5 24 -13 24 -41 0 -37 28
-75 55 -75 9 0 15 -10 16 -22 0 -13 2 -31 4 -41 2 -13 -5 -22 -26 -29 -34 -12
-49 -35 -49 -77 0 -25 -5 -32 -27 -37 -14 -4 -34 -2 -44 5 -23 14 -54 14 -81
0 -11 -6 -31 -8 -44 -5 -20 5 -24 13 -24 45 0 38 -16 61 -52 74 -13 5 -18 17
-18 42 0 25 5 37 18 42 36 13 52 36 52 74 0 51 42 78 70 44z"/>
<path d="M479 331 c-23 -24 -29 -38 -29 -74 0 -60 40 -97 104 -97 61 0 96 36
96 97 0 94 -105 139 -171 74z"/>
</g>
</svg>
