<?xml version="1.0" standalone="no"?>
<!DOCTYPE svg PUBLIC "-//W3C//DTD SVG 20010904//EN"
 "http://www.w3.org/TR/2001/REC-SVG-20010904/DTD/svg10.dtd">
<svg version="1.0" xmlns="http://www.w3.org/2000/svg"
 width="74.000000pt" height="102.000000pt" viewBox="0 0 74.000000 102.000000"
 preserveAspectRatio="xMidYMid meet">
<metadata>
Created by potrace 1.16, written by Peter Selinger 2001-2019
</metadata>
<g transform="translate(0.000000,102.000000) scale(0.100000,-0.100000)"
fill="#000000" stroke="none">
<path d="M35 1011 l-30 -6 0 -500 0 -500 354 -3 c195 -1 359 2 363 6 5 5 9
183 8 396 l0 388 -103 113 -102 113 -230 0 c-126 -1 -243 -4 -260 -7z m463
-45 c2 -3 4 -45 3 -94 -2 -114 2 -120 103 -120 41 0 79 -3 84 -6 10 -6 17
-372 8 -396 -5 -13 -50 -15 -329 -13 -177 2 -324 3 -327 3 -6 0 -2 618 4 628
5 8 446 5 454 -2z m-280 -697 c-2 -17 -11 -23 -43 -26 -53 -5 -75 -27 -75 -73
0 -49 26 -73 80 -72 33 1 40 -3 40 -18 0 -39 -111 -28 -147 15 -17 20 -23 39
-23 77 0 44 4 54 34 84 30 30 40 34 86 34 47 0 51 -2 48 -21z m200 -93 c26
-83 31 -110 21 -116 -19 -12 -36 -1 -43 26 -6 24 -44 41 -70 31 -8 -3 -16 -18
-18 -33 -2 -20 -9 -28 -26 -29 -13 -1 -25 2 -28 6 -4 8 50 201 63 221 2 4 18
7 36 5 31 -2 32 -4 65 -111z m222 98 c41 -27 50 -45 50 -95 0 -62 -6 -75 -44
-98 -27 -17 -96 -28 -141 -22 -13 1 -16 63 -9 159 l6 72 57 0 c36 0 66 -6 81
-16z"/>
<path d="M335 838 c-4 -10 -4 -21 -1 -26 3 -5 -3 -21 -14 -35 -11 -14 -20 -37
-20 -51 0 -31 -20 -76 -34 -77 -6 -1 -17 -1 -23 0 -7 1 -13 -5 -13 -14 0 -8 9
-15 20 -15 24 0 24 3 5 -50 -8 -24 -18 -57 -21 -74 -2 -17 -7 -40 -10 -51 -14
-48 49 56 82 137 20 48 38 88 39 88 1 0 19 -40 39 -89 20 -49 46 -97 56 -106
20 -18 20 -17 20 17 0 20 -7 55 -15 78 -18 52 -18 50 1 50 9 0 14 6 11 13 -2
6 -12 12 -23 12 -15 0 -22 12 -32 55 -8 30 -20 62 -28 71 -8 8 -14 24 -14 35
0 10 -4 26 -10 34 -8 12 -10 12 -15 -2z"/>
</g>
</svg>
