<?xml version="1.0" standalone="no"?>
<!DOCTYPE svg PUBLIC "-//W3C//DTD SVG 20010904//EN"
 "http://www.w3.org/TR/2001/REC-SVG-20010904/DTD/svg10.dtd">
<svg version="1.0" xmlns="http://www.w3.org/2000/svg"
 width="98.000000pt" height="107.000000pt" viewBox="0 0 98.000000 107.000000"
 preserveAspectRatio="xMidYMid meet">
<metadata>
Created by potrace 1.16, written by Peter Selinger 2001-2019
</metadata>
<g transform="translate(0.000000,107.000000) scale(0.100000,-0.100000)"
fill="#000000" stroke="none">
<path d="M17 1052 c-15 -17 -17 -58 -17 -385 0 -419 -5 -397 86 -397 l54 0 0
-58 c0 -86 10 -92 148 -92 112 0 135 7 112 35 -9 11 -37 15 -111 15 l-99 0 0
50 0 50 111 0 c109 0 110 0 107 23 -3 22 -5 22 -180 25 l-178 2 0 350 0 350
315 0 315 0 2 -217 c3 -210 4 -218 23 -218 19 0 20 8 23 143 l3 142 44 0 44 0
3 -142 c3 -135 4 -143 23 -143 19 0 20 8 23 149 3 178 0 186 -85 186 l-53 0 0
58 c0 96 17 92 -367 92 -307 0 -331 -1 -346 -18z"/>
<path d="M629 486 c-59 -21 -96 -53 -123 -108 -56 -112 -16 -231 99 -290 50
-26 138 -27 185 -3 l32 17 46 -52 45 -51 28 27 c16 15 29 32 29 38 0 6 -19 29
-41 52 l-41 42 16 48 c31 90 15 158 -53 225 -65 65 -141 84 -222 55z m168 -62
c54 -40 68 -70 68 -142 0 -54 -4 -73 -23 -100 -87 -121 -290 -78 -309 66 -11
85 24 158 92 188 43 20 138 13 172 -12z"/>
</g>
</svg>
